<svg version="1.1" viewBox="0 0 512 512" xmlns="http://www.w3.org/2000/svg" xmlns:cc="http://creativecommons.org/ns#" xmlns:dc="http://purl.org/dc/elements/1.1/" xmlns:rdf="http://www.w3.org/1999/02/22-rdf-syntax-ns#">
		<title>Armbian Mascot Tux</title>
		<g transform="matrix(2.4151 0 0 2.4135 -61.449 -18.056)">
				<path transform="matrix(1.0269 0 0 1.0269 .099576 -17.94)" d="m90.241 208.44 2.4006-11.945-5.2251-3.1188c-3.0783-1.7445-5.7893-3.8509-6.0244-4.6807-0.23514-0.82982-1.7704-8.438-3.4116-16.907-3.9755-20.514-5.1922-22.98-6.9929-14.174-0.56544 2.7654-9.9774 10.941-12.854 11.166-0.99408 0.0762-2.1153-1.4304-3.1817-4.2797l-1.6467-4.3999 3.5019-11.382c3.4431-11.191 3.5848-11.445 8.4374-15.143l4.9355-3.7615 3.4206-14.62 4.0359-17.831c-0.04347-0.06425 7.8088-28.112 11.078-42.089 0.18224-0.77917 38.88-16.773 39.656-16.773 0.41509 0 9.5276 3.7893 20.25 8.4207l19.496 8.4207 4.068 15.728c2.2374 8.6502 5.4056 23.743 5.7411 25.282 0 0-3.2046-3.9147-11.616-15.266-4.6089-6.2193-8.5053-11.463-8.6587-11.653-0.15332-0.19003-7.0734 0.62142-15.378 1.8032l-15.099 2.1487-13.85-2.4259c-7.6179-1.3343-13.902-2.3622-13.966-2.2844-2.799 3.4324-17.556 24.203-17.556 24.71 0 0.40004 5.84 7.0532 12.978 14.785l12.978 14.058h10.51l-4.4475-6.2794c-5.6891-8.0326-5.5415-8.4695 4.9485-14.649l8.7857-5.176 9.1234 5.4094c10.569 6.2671 10.449 5.9143 4.7819 14.011l-4.3409 6.2025 5.2957 0.28861c6.6602 0.36299 5.4609 1.2392 20.481-14.965l15.044-10.896 4.2064 15.455 4.1921 18.273 4.3278 3.0897c9.4417 6.7407 16.295 36.391 8.4119 36.391-2.3229 0-13.054-9.2255-13.635-11.723-1.1032-4.7357-3.2062-5.3416-3.9039-1.1244-0.33678 2.0377-1.9605 10.395-3.6084 18.572l-2.9956 14.868-5.4924 3.2193c-3.0209 1.7707-6.236 4.1447-6.236 4.1447s2.2685 11.503 2.1661 11.436l-3.912 4.0174-4.6028 4.708h-9.526l-8.9912 0.0648-4.3664-3.9774-5.4408 2.9329-6.0063-3.0343-4.9528 4.1202-18.605-0.10626z" fill="#221e1f" stroke="#ffffff" stroke-width=".40336"/>
				<path transform="translate(6.626 13.252)" d="m85.637 28.112 79.499 0.48644 8.3041 31.283 1.7544 7.4307 8.0523 34.724-59.073 7.4944-57.539-5.9326 7.87-36.232 2.1765-8.1744z" fill="#f5f5f5" stroke="#ffffff" stroke-linejoin="round" stroke-miterlimit="3.9" stroke-width=".4142" style="paint-order:markers stroke fill"/>
				<path d="m131.09 203.14-5.3567-2.2592 5.1354-4.6548-3.9922-15.51-30.595-0.0524-0.63934 2.2138-11.292-7.4047c-0.63886-0.41891-2.1839-9.7735-4.2449-20.134-2.8919-14.537-4.0734-18.763-5.1763-18.515-1.0494 0.23603-1.1351 0.0217-0.3223-0.80683 0.80989-0.82557 0.64156-3.4052-0.62745-9.6155-0.95385-4.668-2.0105-8.7635-2.3481-9.1012-0.33763-0.33763-0.22493-1.1053 0.25044-1.7059 0.47537-0.60059 2.5605-8.517 4.6336-17.592 2.0731-9.075 4.0814-17.1 4.4628-17.832 0.47289-0.90842 4.9615 3.2988 14.108 13.223l13.414 14.555 14.256 0.0536 3.788 5.5c2.0834 3.025 3.924 5.5 4.0902 5.5s2.1306-2.475 4.3653-5.5l4.0631-5.5h15.696l13.332-14.488c7.3328-7.9684 13.634-14.156 14.003-13.75s2.3623 8.163 4.4302 17.238c2.0679 9.075 4.0616 17.081 4.4304 17.791 0.36877 0.7101-0.39221 6.1101-1.6911 12-1.2988 5.8899-3.7958 18.822-5.8095 28.209-1.5387 7.1727-3.8461 20.862-4.7928 21.479l-11.642 7.7279-0.81235-3.3491-30.764-0.0303-3.2503 15.336 5.1 4.5712-4.4165 2.4951-0.88367-0.0636zm-18.495-132.44c-2.5498-1.8644-1.7647-6.0992 1.2089-6.5207 4.423-0.62701 6.6542 3.2247 3.6235 6.2553-1.9097 1.9097-2.5366 1.9441-4.8324 0.2654zm33.975-0.2654c-1.9587-1.9587-2.0026-3.8259-0.12647-5.3829 2.3022-1.9107 6.0063-0.88952 6.3818 1.7594 0.62701 4.423-3.2247 6.6542-6.2553 3.6235z" fill="#3f3f40" stroke-width=".4142"/>
				<path d="m98 200.5-4.4164-4.5 36.916 0.0412-10 8.882-18.084 0.0768zm39.5-0.0179-5-4.441 36.916-0.0412-8.8328 9-18.084-0.0768zm-29.282-24.943c1.8049-2.4536 3.5067-4.461 3.7817-4.461s1.9768 2.0074 3.7817 4.461l3.2817 4.461h-14.127zm37.697 2.711c0.54216-0.9625 2.041-3.0381 3.3307-4.6125l2.345-2.8624 2.5253 3.3624c4.5199 6.0182 4.5888 5.8625-2.5926 5.8625-5.989 0-6.5037-0.1606-5.6084-1.75zm-14.909-78.073-6e-3 -18.746 5.75 3.6996c-0.0841-0.05411 6.9846 3.9727 8.4937 4.8234 1.509 0.85073 2.7465 2.102 2.75 2.7806 3e-3 0.67859-2.3562 4.5994-5.2437 8.7128-2.8875 4.1135-6.7098 9.6333-8.494 12.266l-3.244 4.7872z" fill="#eb1b21" stroke-width=".4142"/>
				<path d="m96.497 180.92 30.224-5e-3 3.8334 15.101s-36.974 0.0482-36.977-0.0336zm37.629 7.6168 1.4924-7.5h30.405l1.2303 5.75c0.67667 3.1625 1.5069 7.9957 1.7798 8.9582 0.45972 1.6213-0.91195 0.29181-17.979 0.29181h-18.537zm-13.913-84.203-8.6286-11.951 9.1286-5.4876 9.6817-5.5201 0.1612 11.76c0.0872 6.3615-0.0328 13.522-0.0119 16.756l0.0546 8.4774z" fill="#f58121" stroke-width=".4142"/>
				<path d="m56.459 150.33c-1.6087-3.767-1.5721-4.0329 2.1347-15.519 3.5813-11.097 3.9945-11.843 8.1986-14.807 2.435-1.7163 4.6579-2.8899 4.9399-2.6079 0.28199 0.28199 1.2943 4.3378 2.2496 9.0129l1.7369 8.5002-2.8188 3.2939c-1.5504 1.8116-2.8371 4.0272-2.8595 4.9234-0.03367 1.3501-3.8517 4.9511-10.743 10.132-0.84331 0.63403-1.6905-0.24008-2.8387-2.9289zm142.29-1.0315c-3.6162-2.899-5.75-5.367-5.75-6.6506 0-1.1226-1.1856-3.2786-2.6347-4.7911l-2.6347-2.75 1.7587-9.0547c0.96731-4.9801 1.9593-9.0547 2.2045-9.0547s2.4004 1.3448 4.7894 2.9885c4.0664 2.7978 4.5795 3.6963 8.0386 14.077 3.4548 10.368 3.6144 11.376 2.4565 15.511-0.68108 2.4326-1.5174 4.4028-1.8584 4.3782-0.34102-0.0246-3.2075-2.119-6.37-4.6542zm-112.02-92.49c2.4475-9.521 4.7474-17.609 5.1109-17.972 0.81762-0.81842 38.698-16.836 39.837-16.845 0.45312-0.0036 9.5988 3.6815 20.324 8.1892s19.57 8.2231 19.656 8.2566c0.31793 0.1239 9.1719 34.561 8.8858 34.561-0.16343 0-4.187-5.1787-8.9413-11.508l-8.6441-11.508-3.7282 0.56743c-29.15 4.4367-26.234 4.3099-41.095 1.7868-7.4982-1.273-14.599-2.3197-15.779-2.3261-1.5813-0.0085-4.3254 2.9468-10.436 11.238-4.5596 6.1875-8.594 11.615-8.9655 12.061-0.37145 0.44601 1.3272-6.979 3.7747-16.5z" fill="#221e1f" stroke-width=".4142"/>
		</g>
		<metadata>
				<rdf:RDF>
						<cc:Work rdf:about="">
								<dc:title>Armbian Mascot Tux</dc:title>
								<dc:description>Current Discord server icon</dc:description>
								<dc:subject>
										<rdf:Bag>
												<rdf:li>armbian</rdf:li>
												<rdf:li>tux</rdf:li>
												<rdf:li>linux</rdf:li>
										</rdf:Bag>
								</dc:subject>
						</cc:Work>
				</rdf:RDF>
		</metadata>
</svg>
