<?xml version="1.0" encoding="UTF-8" standalone="no"?>
<svg
   version="1.1"
   viewBox="0 0 512 512"
   id="svg6"
   sodipodi:docname="armbian_sdk_v1.1.svg"
   inkscape:version="1.3.2 (091e20e, 2023-11-25, custom)"
   xmlns:inkscape="http://www.inkscape.org/namespaces/inkscape"
   xmlns:sodipodi="http://sodipodi.sourceforge.net/DTD/sodipodi-0.dtd"
   xmlns="http://www.w3.org/2000/svg"
   xmlns:svg="http://www.w3.org/2000/svg"
   xmlns:rdf="http://www.w3.org/1999/02/22-rdf-syntax-ns#"
   xmlns:cc="http://creativecommons.org/ns#"
   xmlns:dc="http://purl.org/dc/elements/1.1/">
  <defs
     id="defs6" />
  <sodipodi:namedview
     id="namedview6"
     pagecolor="#505050"
     bordercolor="#ffffff"
     borderopacity="1"
     inkscape:showpageshadow="0"
     inkscape:pageopacity="0"
     inkscape:pagecheckerboard="1"
     inkscape:deskcolor="#d1d1d1"
     inkscape:zoom="1.1946238"
     inkscape:cx="293.81636"
     inkscape:cy="271.63364"
     inkscape:window-width="1920"
     inkscape:window-height="1174"
     inkscape:window-x="-11"
     inkscape:window-y="-11"
     inkscape:window-maximized="1"
     inkscape:current-layer="svg6" />
  <title
     id="title1">Armbian SDK Icon </title>
  <g
     transform="matrix(2.4151,0,0,2.4135,-61.449,-18.056)"
     id="g6"
     style="display:none">
    <path
       transform="matrix(1.0269,0,0,1.0269,0.099576,-17.94)"
       d="m 90.241,208.44 2.4006,-11.945 -5.2251,-3.1188 c -3.0783,-1.7445 -5.7893,-3.8509 -6.0244,-4.6807 -0.23514,-0.82982 -1.7704,-8.438 -3.4116,-16.907 -3.9755,-20.514 -5.1922,-22.98 -6.9929,-14.174 -0.56544,2.7654 -9.9774,10.941 -12.854,11.166 -0.99408,0.0762 -2.1153,-1.4304 -3.1817,-4.2797 l -1.6467,-4.3999 3.5019,-11.382 c 3.4431,-11.191 3.5848,-11.445 8.4374,-15.143 l 4.9355,-3.7615 3.4206,-14.62 4.0359,-17.831 c -0.04347,-0.06425 7.8088,-28.112 11.078,-42.089 0.18224,-0.77917 38.88,-16.773 39.656,-16.773 0.41509,0 9.5276,3.7893 20.25,8.4207 l 19.496,8.4207 4.068,15.728 c 2.2374,8.6502 5.4056,23.743 5.7411,25.282 0,0 -3.2046,-3.9147 -11.616,-15.266 -4.6089,-6.2193 -8.5053,-11.463 -8.6587,-11.653 -0.15332,-0.19003 -7.0734,0.62142 -15.378,1.8032 l -15.099,2.1487 -13.85,-2.4259 c -7.6179,-1.3343 -13.902,-2.3622 -13.966,-2.2844 -2.799,3.4324 -17.556,24.203 -17.556,24.71 0,0.40004 5.84,7.0532 12.978,14.785 l 12.978,14.058 h 10.51 l -4.4475,-6.2794 c -5.6891,-8.0326 -5.5415,-8.4695 4.9485,-14.649 l 8.7857,-5.176 9.1234,5.4094 c 10.569,6.2671 10.449,5.9143 4.7819,14.011 l -4.3409,6.2025 5.2957,0.28861 c 6.6602,0.36299 5.4609,1.2392 20.481,-14.965 l 15.044,-10.896 4.2064,15.455 4.1921,18.273 4.3278,3.0897 c 9.4417,6.7407 16.295,36.391 8.4119,36.391 -2.3229,0 -13.054,-9.2255 -13.635,-11.723 -1.1032,-4.7357 -3.2062,-5.3416 -3.9039,-1.1244 -0.33678,2.0377 -1.9605,10.395 -3.6084,18.572 l -2.9956,14.868 -5.4924,3.2193 c -3.0209,1.7707 -6.236,4.1447 -6.236,4.1447 0,0 2.2685,11.503 2.1661,11.436 l -3.912,4.0174 -4.6028,4.708 h -9.526 l -8.9912,0.0648 -4.3664,-3.9774 -5.4408,2.9329 -6.0063,-3.0343 -4.9528,4.1202 -18.605,-0.10626 z"
       fill="#221e1f"
       stroke="#ffffff"
       stroke-width="0.40336"
       id="path1" />
    <path
       transform="translate(6.626,13.252)"
       d="m 85.637,28.112 79.499,0.48644 8.3041,31.283 1.7544,7.4307 8.0523,34.724 -59.073,7.4944 -57.539,-5.9326 7.87,-36.232 2.1765,-8.1744 z"
       fill="#f5f5f5"
       stroke="#ffffff"
       stroke-linejoin="round"
       stroke-miterlimit="3.9"
       stroke-width="0.4142"
       style="paint-order:markers stroke fill"
       id="path2" />
    <path
       d="m 131.09,203.14 -5.3567,-2.2592 5.1354,-4.6548 -3.9922,-15.51 -30.595,-0.0524 -0.63934,2.2138 -11.292,-7.4047 c -0.63886,-0.41891 -2.1839,-9.7735 -4.2449,-20.134 -2.8919,-14.537 -4.0734,-18.763 -5.1763,-18.515 -1.0494,0.23603 -1.1351,0.0217 -0.3223,-0.80683 0.80989,-0.82557 0.64156,-3.4052 -0.62745,-9.6155 -0.95385,-4.668 -2.0105,-8.7635 -2.3481,-9.1012 -0.33763,-0.33763 -0.22493,-1.1053 0.25044,-1.7059 0.47537,-0.60059 2.5605,-8.517 4.6336,-17.592 2.0731,-9.075 4.0814,-17.1 4.4628,-17.832 0.47289,-0.90842 4.9615,3.2988 14.108,13.223 l 13.414,14.555 14.256,0.0536 3.788,5.5 c 2.0834,3.025 3.924,5.5 4.0902,5.5 0.1662,0 2.1306,-2.475 4.3653,-5.5 l 4.0631,-5.5 h 15.696 l 13.332,-14.488 c 7.3328,-7.9684 13.634,-14.156 14.003,-13.75 0.369,0.406 2.3623,8.163 4.4302,17.238 2.0679,9.075 4.0616,17.081 4.4304,17.791 0.36877,0.7101 -0.39221,6.1101 -1.6911,12 -1.2988,5.8899 -3.7958,18.822 -5.8095,28.209 -1.5387,7.1727 -3.8461,20.862 -4.7928,21.479 l -11.642,7.7279 -0.81235,-3.3491 -30.764,-0.0303 -3.2503,15.336 5.1,4.5712 -4.4165,2.4951 -0.88367,-0.0636 z M 112.595,70.7 c -2.5498,-1.8644 -1.7647,-6.0992 1.2089,-6.5207 4.423,-0.62701 6.6542,3.2247 3.6235,6.2553 -1.9097,1.9097 -2.5366,1.9441 -4.8324,0.2654 z m 33.975,-0.2654 c -1.9587,-1.9587 -2.0026,-3.8259 -0.12647,-5.3829 2.3022,-1.9107 6.0063,-0.88952 6.3818,1.7594 0.62701,4.423 -3.2247,6.6542 -6.2553,3.6235 z"
       fill="#3f3f40"
       stroke-width="0.4142"
       id="path3" />
    <path
       d="m 98,200.5 -4.4164,-4.5 36.916,0.0412 -10,8.882 -18.084,0.0768 z m 39.5,-0.0179 -5,-4.441 36.916,-0.0412 -8.8328,9 -18.084,-0.0768 z m -29.282,-24.943 c 1.8049,-2.4536 3.5067,-4.461 3.7817,-4.461 0.275,0 1.9768,2.0074 3.7817,4.461 l 3.2817,4.461 h -14.127 z m 37.697,2.711 c 0.54216,-0.9625 2.041,-3.0381 3.3307,-4.6125 l 2.345,-2.8624 2.5253,3.3624 c 4.5199,6.0182 4.5888,5.8625 -2.5926,5.8625 -5.989,0 -6.5037,-0.1606 -5.6084,-1.75 z m -14.909,-78.073 -0.006,-18.746 5.75,3.6996 c -0.0841,-0.05411 6.9846,3.9727 8.4937,4.8234 1.509,0.85073 2.7465,2.102 2.75,2.7806 0.003,0.67859 -2.3562,4.5994 -5.2437,8.7128 -2.8875,4.1135 -6.7098,9.6333 -8.494,12.266 l -3.244,4.7872 z"
       fill="#eb1b21"
       stroke-width="0.4142"
       id="path4" />
    <path
       d="m 96.497,180.92 30.224,-0.005 3.8334,15.101 c 0,0 -36.974,0.0482 -36.977,-0.0336 z m 37.629,7.6168 1.4924,-7.5 h 30.405 l 1.2303,5.75 c 0.67667,3.1625 1.5069,7.9957 1.7798,8.9582 0.45972,1.6213 -0.91195,0.29181 -17.979,0.29181 h -18.537 z m -13.913,-84.203 -8.6286,-11.951 9.1286,-5.4876 9.6817,-5.5201 0.1612,11.76 c 0.0872,6.3615 -0.0328,13.522 -0.0119,16.756 l 0.0546,8.4774 z"
       fill="#f58121"
       stroke-width="0.4142"
       id="path5" />
    <path
       d="m 56.459,150.33 c -1.6087,-3.767 -1.5721,-4.0329 2.1347,-15.519 3.5813,-11.097 3.9945,-11.843 8.1986,-14.807 2.435,-1.7163 4.6579,-2.8899 4.9399,-2.6079 0.28199,0.28199 1.2943,4.3378 2.2496,9.0129 l 1.7369,8.5002 -2.8188,3.2939 c -1.5504,1.8116 -2.8371,4.0272 -2.8595,4.9234 -0.03367,1.3501 -3.8517,4.9511 -10.743,10.132 -0.84331,0.63403 -1.6905,-0.24008 -2.8387,-2.9289 z m 142.29,-1.0315 c -3.6162,-2.899 -5.75,-5.367 -5.75,-6.6506 0,-1.1226 -1.1856,-3.2786 -2.6347,-4.7911 l -2.6347,-2.75 1.7587,-9.0547 c 0.96731,-4.9801 1.9593,-9.0547 2.2045,-9.0547 0.2452,0 2.4004,1.3448 4.7894,2.9885 4.0664,2.7978 4.5795,3.6963 8.0386,14.077 3.4548,10.368 3.6144,11.376 2.4565,15.511 -0.68108,2.4326 -1.5174,4.4028 -1.8584,4.3782 -0.34102,-0.0246 -3.2075,-2.119 -6.37,-4.6542 z m -112.02,-92.49 c 2.4475,-9.521 4.7474,-17.609 5.1109,-17.972 0.81762,-0.81842 38.698,-16.836 39.837,-16.845 0.45312,-0.0036 9.5988,3.6815 20.324,8.1892 10.7252,4.5077 19.57,8.2231 19.656,8.2566 0.31793,0.1239 9.1719,34.561 8.8858,34.561 -0.16343,0 -4.187,-5.1787 -8.9413,-11.508 l -8.6441,-11.508 -3.7282,0.56743 c -29.15,4.4367 -26.234,4.3099 -41.095,1.7868 -7.4982,-1.273 -14.599,-2.3197 -15.779,-2.3261 -1.5813,-0.0085 -4.3254,2.9468 -10.436,11.238 -4.5596,6.1875 -8.594,11.615 -8.9655,12.061 -0.37145,0.44601 1.3272,-6.979 3.7747,-16.5 z"
       fill="#221e1f"
       stroke-width="0.4142"
       id="path6" />
  </g>
  <metadata
     id="metadata6">
    <rdf:RDF>
      <cc:Work
         rdf:about="">
        <dc:title>Armbian SDK Icon </dc:title>
        <dc:subject>
          <rdf:Bag>
            <rdf:li>armbian</rdf:li>
            <rdf:li>tux</rdf:li>
            <rdf:li>linux</rdf:li>
          </rdf:Bag>
        </dc:subject>
        <dc:description>Last used: Unknown</dc:description>
      </cc:Work>
    </rdf:RDF>
  </metadata>
  <g
     id="g3"
     style="fill:none;stroke:#000000;stroke-width:0.013938"
     transform="matrix(13.558377,0,0,13.558377,245.19817,204.70726)">
    <g
       id="g2"
       style="stroke-width:0.013938">
      <path
         style="fill:#000000;fill-opacity:1;stroke:none;stroke-width:0.073755px;stroke-linecap:butt;stroke-linejoin:miter;stroke-opacity:1"
         d="m 0.76132096,-12.572216 -7.14422876,3.112339 -1.6976381,6.7905549 3.4306456,-4.739243 5.44659076,0.8841872 5.55269394,-0.8488204 3.3245425,4.6685067 -1.7330076,-6.7551854 z"
         id="path1227" />
      <path
         style="fill:#191919;fill-opacity:1;stroke:none;stroke-width:0.073755px;stroke-linecap:butt;stroke-linejoin:miter;stroke-opacity:1"
         d="M -8.0805459,-2.6693221 -9.7428172,4.2980698 -7.6207689,14.979048 0.79669046,19.753657 9.2141498,14.979048 11.336198,4.2980698 9.6739269,-2.7046916 4.8285806,2.8480024 -3.1998354,2.7772687 -8.0805459,-2.6693221"
         id="path1342" />
      <path
         style="fill:#000000;fill-opacity:1;stroke:none;stroke-width:0.073755px;stroke-linecap:butt;stroke-linejoin:miter;stroke-opacity:1"
         d="M 11.127589,4.9462205 9.0594407,5.4214631 6.1489984,8.5797033 6.1104294,10.149004 8.7279435,9.5692934 9.1225299,8.8544457 10.358036,8.3633564 11.127589,4.9462207"
         id="path1816" />
      <path
         style="fill:#000000;fill-opacity:1;stroke:none;stroke-width:0.073755px;stroke-linecap:butt;stroke-linejoin:miter;stroke-opacity:1"
         d="m -9.5598945,4.9405598 2.0775569,0.4683629 2.803232,3.1944151 0.1561099,1.7378772 L -7.2490411,9.6086492 -7.6110249,8.8400725 -8.8892281,8.2088508 Z"
         id="path1818" />
      <path
         style="fill:#ff0000;fill-opacity:1;stroke:none;stroke-width:0.073755px;stroke-linecap:butt;stroke-linejoin:miter;stroke-opacity:1"
         d="m -2.7400584,13.95339 -1.1671273,1.733008 h 2.4403578 z"
         id="path1820" />
      <path
         style="fill:#ff6600;fill-opacity:1;stroke:none;stroke-width:0.073755px;stroke-linecap:butt;stroke-linejoin:miter;stroke-opacity:1"
         d="m -1.4668279,15.686398 h 1.52080121 l 0.56588024,2.687926 H -5.9231308 l 0.5305134,-2.687926 z"
         id="path1822" />
      <path
         style="fill:#ff0000;fill-opacity:1;stroke:none;stroke-width:0.073755px;stroke-linecap:butt;stroke-linejoin:miter;stroke-opacity:1"
         d="m -5.9231308,18.374324 1.556168,1.69764 h 3.2891756 l 1.69764075,-1.69764 H -5.9231308"
         id="path2098" />
      <path
         style="fill:#fe0000;fill-opacity:1;stroke:none;stroke-width:0.073755px;stroke-linecap:butt;stroke-linejoin:miter;stroke-opacity:1"
         d="M 4.197657,14.019849 3.0305297,15.752857 H 5.4708875 Z"
         id="path1820-0" />
      <path
         style="fill:#ff6600;fill-opacity:1;stroke:none;stroke-width:0.073755px;stroke-linecap:butt;stroke-linejoin:miter;stroke-opacity:1"
         d="m 5.4708875,15.752857 h 1.5208012 l 0.5658802,2.687926 H 1.0145846 L 1.545098,15.752857 Z"
         id="path1822-4" />
      <path
         style="fill:#ff0000;fill-opacity:1;stroke:none;stroke-width:0.073755px;stroke-linecap:butt;stroke-linejoin:miter;stroke-opacity:1"
         d="m 1.0145846,18.440783 1.556168,1.69764 h 3.2891756 l 1.6976407,-1.69764 H 1.0145846"
         id="path2098-5" />
      <path
         style="fill:#ffffff;fill-opacity:1;stroke:none;stroke-width:0.073755px;stroke-linecap:butt;stroke-linejoin:miter;stroke-opacity:1"
         d="m -8.0805459,-2.6693221 3.4306456,-4.739243 5.44659076,0.8841872 5.55269394,-0.8488204 3.3245425,4.6685067 -4.8453463,5.552694 -8.028416,-0.070734 z"
         id="path2833" />
      <path
         style="fill:#ff6500;fill-opacity:1;stroke:none;stroke-width:0.073755px;stroke-linecap:butt;stroke-linejoin:miter;stroke-opacity:1"
         d="M 0.61985355,-1.891238 -2.6339552,0.08934016 0.61985355,4.72248 Z"
         id="path2542" />
      <path
         style="fill:#ff0000;fill-opacity:1;stroke:none;stroke-width:0.073755px;stroke-linecap:butt;stroke-linejoin:miter;stroke-opacity:1"
         d="M 0.61985355,-1.891238 3.8736597,0.08934016 0.61985355,4.72248 Z"
         id="path2676" />
      <circle
         style="fill:#191919;fill-opacity:1;stroke:none;stroke-width:0.590041;stroke-linecap:round;stroke-linejoin:round;stroke-miterlimit:100;paint-order:fill markers stroke"
         id="path17365"
         cx="-2.1830194"
         cy="-4.2343354"
         r="0.81345195" />
      <circle
         style="fill:#191919;fill-opacity:1;stroke:none;stroke-width:0.590041;stroke-linecap:round;stroke-linejoin:round;stroke-miterlimit:100;paint-order:fill markers stroke"
         id="path17365-4"
         cx="3.9178703"
         cy="-4.2741213"
         r="0.81345195" />
    </g>
    <g
       transform="matrix(0.00107549,0,0,-0.00107549,-4.6143772,8.8800466)"
       id="g30088"
       style="fill:#ffffff;stroke-width:0.013938">
      <path
         d="m 6516.2,3301.5 c -71.1,-34.6 -103.8,-88.4 -176.9,-282.6 -55.7,-146.1 -157.6,-223 -307.6,-234.5 -151.8,-11.5 -251.8,46.1 -361.4,211.4 -101.9,153.8 -148,188.4 -246,190.3 -100,0 -265.3,-84.6 -311.4,-163.4 -53.8,-86.5 -48.1,-169.2 23.1,-307.6 119.2,-232.6 63.4,-436.4 -146.1,-540.2 -107.7,-55.8 -115.3,-55.8 -221.1,-32.7 -59.6,13.5 -146.1,28.8 -194.2,32.7 -161.5,17.3 -263.4,-96.1 -282.6,-321 -11.5,-107.7 -7.7,-115.3 53.8,-176.9 42.3,-40.4 111.5,-80.7 192.2,-107.6 194.2,-63.4 286.4,-178.8 286.4,-357.6 0,-157.6 -61.5,-248 -242.2,-359.5 -163.4,-98 -198,-213.4 -115.3,-376.8 100,-198 217.2,-238.4 407.5,-142.3 63.4,32.7 146.1,63.4 184.5,71.1 144.2,26.9 307.6,-59.6 380.6,-203.8 46.1,-86.5 48.1,-180.7 9.6,-324.9 -50,-186.5 13.5,-303.7 192.2,-357.5 223,-67.3 317.2,-13.5 396,223 75,221.1 255.7,338.3 444.1,286.4 119.2,-30.8 167.2,-71.1 257.6,-213.4 132.8,-205.3 246.3,-236.1 442.3,-113.1 157.6,96.1 180.7,205.7 84.6,409.4 -69.2,144.2 -75,271 -21.1,376.8 73,142.3 190.3,205.7 351.8,188.4 372.9,-38.4 330.6,-42.3 407.5,28.8 50,48.1 76.9,94.2 96.1,174.9 50,194.1 -9.6,294.1 -213.4,363.3 -207.6,69.2 -313.3,192.2 -313.3,367.1 0,136.5 63.4,238.4 211.4,332.6 71.1,46.1 144.2,103.8 161.5,126.9 42.3,61.5 38.4,176.8 -9.6,272.9 -57.7,115.3 -109.6,165.3 -194.2,188.4 -67.3,17.3 -90.4,11.5 -224.9,-50 -228.7,-101.9 -371,-86.5 -495.9,53.8 -98,111.5 -115.3,196.1 -73,376.8 19.2,86.5 28.8,173 21.1,203.8 -21.1,82.7 -107.6,155.7 -226.8,190.3 -134.6,38.6 -144.2,38.6 -226.9,-3.7 z M 6335.5,2161.6 c 236.5,-44.2 457.5,-215.3 561.3,-436.4 46.1,-98 51.9,-132.6 51.9,-321 0,-192.2 -5.8,-221.1 -53.8,-322.9 C 6818,927.4 6679.6,791 6522,716 c -119.2,-55.8 -148,-61.5 -313.3,-61.5 -144.2,1.9 -205.7,9.6 -294.1,46.1 -153.8,61.5 -322.9,221.1 -401.8,380.6 -182.6,371 -15.4,845.8 361.4,1018.8 169.1,76.9 288.3,94.2 461.3,61.6 z"
         id="path30082"
         style="fill:#ffffff;stroke-width:0.013938" />
      <path
         d="m 2254.5,1971.2 c -86.5,-19.2 -155.7,-69.2 -198,-140.3 -32.7,-51.9 -38.4,-98 -38.4,-286.4 0,-123 -9.6,-248 -21.1,-278.7 -65.4,-176.8 -213.4,-290.3 -399.8,-307.6 -146.1,-13.4 -230.7,15.4 -394.1,134.6 -121.1,88.4 -144.2,100 -249.9,105.7 C 809,1206.2 755.2,1175.4 636,1021.7 564.9,931.3 549.5,892.9 541.8,810.2 530.3,669.9 570.6,596.8 720.6,471.9 878.2,341.2 941.7,223.9 941.7,64.4 941.7,-68.2 910.9,-149 826.4,-247 743.7,-339.3 655.3,-383.5 490,-410.4 292,-443.1 238.2,-466.2 174.7,-537.3 c -73.1,-84.6 -88.4,-167.2 -63.4,-340.2 21.1,-142.2 55.8,-205.7 146.1,-272.9 46.1,-36.5 80.7,-40.4 296,-42.3 269.1,0 321,-15.4 442.1,-130.7 80.7,-73.1 115.3,-140.3 136.5,-251.8 26.9,-144.2 -5.8,-249.9 -134.6,-440.2 -113.4,-167.2 -117.3,-176.9 -109.6,-276.8 11.5,-121.1 46.1,-174.9 194.1,-290.3 198,-153.8 359.5,-125 542.1,96.1 125,149.9 244.1,213.4 403.7,215.3 253.8,0 424.8,-151.8 472.9,-424.8 9.6,-59.6 23.1,-138.4 28.8,-173 13.4,-88.4 128.8,-209.5 219.1,-234.5 48.1,-13.5 115.3,-13.5 203.8,0 73,9.6 138.4,19.2 146.1,19.2 28.8,0 134.6,103.8 163.4,161.5 25,46.1 30.8,105.7 26.9,274.9 -3.9,240.3 11.5,301.8 113.4,417.1 117.3,132.6 309.5,192.2 471,148 42.3,-11.5 132.6,-59.6 199.9,-109.6 165.3,-121.1 238.4,-148 344.1,-132.6 96.1,13.5 199.9,98.1 292.2,234.5 44.2,71.1 57.7,109.6 57.7,186.5 0,123 -38.4,186.5 -192.2,321 -211.5,182.6 -267.2,396 -161.5,609.4 86.5,174.9 167.2,223 476.7,280.7 257.6,50 342.2,173 305.7,442.1 -25,173 -75,251.8 -192.2,303.7 -73,32.7 -109.6,34.6 -251.8,25 -101.9,-9.6 -198,-5.8 -244.1,7.7 -121.1,32.7 -232.6,124.9 -290.3,242.2 -44.2,90.4 -50,125 -44.2,244.1 7.7,136.5 11.5,146.1 121.1,301.8 132.6,186.5 155.7,290.3 96.1,415.2 -40.4,86.5 -221.1,232.6 -321,261.4 -138.4,36.5 -199.9,9.6 -369.1,-165.3 -192.2,-199.9 -248,-228.7 -422.9,-228.7 -157.6,0 -257.6,42.3 -353.7,153.8 -76.9,86.5 -94.2,130.7 -130.7,334.5 -30.7,176.9 -80.7,267.2 -178.8,317.2 -59.7,30.5 -252,36.3 -359.6,9.3 z M 2890.8,404.6 c 182.6,-48.1 319.1,-126.9 455.6,-259.5 394.1,-388.3 403.7,-980.4 23.1,-1386 -196.1,-207.6 -424.8,-305.7 -717,-305.7 -292.2,0 -520.9,98 -717,305.7 -292.2,313.3 -359.5,730.5 -174.9,1113 201.7,417.1 688,647.8 1130.2,532.5 z"
         id="path30084"
         style="fill:#ffffff;stroke-width:0.013938" />
      <path
         d="m 8261.7,912.1 c -59.6,-32.7 -80.7,-100 -80.7,-242.2 -1.9,-134.6 -3.8,-142.2 -71.1,-209.5 -105.7,-103.8 -196.1,-109.6 -342.2,-19.2 -142.2,86.5 -223,92.3 -294.1,17.3 -125,-134.6 -125,-213.4 3.9,-330.6 57.5,-52 103.7,-115.5 115.2,-153.9 38.4,-138.4 -53.8,-290.3 -192.2,-317.2 -30.8,-5.8 -82.7,-17.3 -115.3,-23.1 -84.6,-15.4 -134.6,-90.4 -134.6,-203.8 0,-78.8 9.6,-103.8 55.8,-151.9 51.9,-50 69.2,-55.8 188.4,-55.8 149.9,0 236.4,-40.4 284.5,-132.6 48.1,-94.2 36.5,-178.8 -38.4,-288.3 -92.3,-134.6 -92.3,-211.4 5.8,-299.9 111.5,-103.8 190.3,-100 311.4,17.3 103.8,101.9 151.9,126.9 230.7,126.9 119.2,0 249.9,-115.3 249.9,-221.1 0,-96.1 40.4,-182.6 100,-213.4 78.8,-40.4 215.3,-21.2 276.8,40.4 40.4,40.4 46.1,63.4 46.1,194.2 0,144.2 0,148 75,221.1 65.4,67.3 84.6,75 167.2,75 73.1,0 117.3,-15.4 199.9,-67.3 57.7,-36.5 123,-67.3 146.1,-67.3 53.8,0 153.8,82.7 192.2,157.6 42.3,82.7 19.2,149.9 -88.4,251.8 -142.3,134.6 -153.8,267.2 -32.7,388.3 48.1,48.1 86.5,65.4 167.2,76.9 180.7,25 251.8,140.3 190.3,315.3 -30.8,84.6 -111.5,123 -228.8,107.6 -173,-23.1 -307.6,86.5 -307.6,249.9 0,55.8 19.2,107.7 67.3,182.6 100,155.7 86.5,238.4 -55.8,324.9 -103.8,65.3 -151.8,53.8 -280.6,-65.4 C 8965.3,496.7 8951.8,491 8859.5,491 c -88.4,0 -105.7,7.7 -171.1,73 -57.7,57.7 -75,90.4 -86.5,174.9 C 8582.7,885 8530.8,933 8396.2,933 8340.5,933.2 8279,923.6 8261.7,912.1 Z M 8740.3,49 c 186.5,-82.7 294.1,-236.4 309.5,-444 11.5,-165.3 -26.9,-278.7 -138.4,-397.9 -98,-107.6 -201.8,-159.6 -336.4,-171.1 -371,-34.6 -659.3,299.9 -569,655.5 84.6,328.6 424.8,493.9 734.3,357.5 z"
         id="path30086"
         style="fill:#ffffff;stroke-width:0.013938" />
    </g>
  </g>
</svg>
